<svg width="161" height="32" viewBox="0 0 161 32" fill="none" xmlns="http://www.w3.org/2000/svg">
<rect x="0.5" y="0.5" width="160" height="31" rx="5.5" fill="#F4F9FD"/>
<rect x="0.5" y="0.5" width="160" height="31" rx="5.5" stroke="#D9DDE0"/>
<g clip-path="url(#clip0_870_2)">
<path d="M23.9688 8.9613C23.9688 8.9613 28.1122 8.77481 30.3081 12.9387H23.6166C23.6166 12.9387 22.353 12.8972 21.2756 14.4303C20.965 15.0726 20.6336 15.7356 21.0064 17.0405C20.4677 16.1292 18.1475 12.0894 18.1475 12.0894C18.1475 12.0894 19.7842 9.12693 23.9688 8.9613Z" fill="#DA4537"/>
<path d="M18.1475 12.0894C18.1475 12.0894 20.4677 16.1292 21.0064 17.0405C20.796 16.3042 20.8099 15.7723 20.9177 15.3331L18.1475 12.0894Z" fill="#B63729"/>
<path d="M30.0923 19.5333C30.0923 19.5333 28.1817 23.2143 23.4775 23.0334C24.0579 22.029 26.824 17.239 26.824 17.239C26.824 17.239 27.4919 16.1655 26.7035 14.466C26.531 14.2121 26.3572 13.9529 26.1103 13.7137C25.7832 13.3969 25.3279 13.1152 24.5775 12.9272C25.6365 12.9168 30.2948 12.9279 30.2948 12.9279C30.2948 12.9279 32.0415 15.8267 30.0923 19.5333Z" fill="#FFCD3F"/>
<path d="M17.875 19.5614C17.875 19.5614 15.6425 16.0658 18.1516 12.0826L21.4961 17.8785C21.4961 17.8785 22.0918 18.9935 23.958 19.1605C24.2944 19.1359 24.6371 19.1131 25.0046 18.9928C25.4146 18.8587 25.8556 18.6033 26.3533 18.0891C25.833 19.0112 23.4938 23.04 23.4938 23.04C23.4938 23.04 20.1101 23.1031 17.875 19.5614Z" fill="#0A9E58"/>
<path d="M20.8167 16.0576C20.8167 14.3264 22.2203 12.9227 23.9518 12.9227C25.6833 12.9227 27.0867 14.3264 27.0867 16.0576C27.0867 17.7893 25.6833 19.1929 23.9518 19.1929C22.2203 19.1929 20.8167 17.7894 20.8167 16.0576Z" fill="white"/>
<path d="M21.4932 16.0576C21.4932 14.7001 22.5938 13.5994 23.9515 13.5994C25.3088 13.5994 26.4096 14.7001 26.4096 16.0576C26.4096 17.4153 25.3088 18.516 23.9515 18.516C22.5938 18.516 21.4932 17.4153 21.4932 16.0576Z" fill="#577FC0"/>
<path d="M30.2947 12.9279C30.2947 12.9279 25.6364 12.9168 24.5775 12.9272C25.3278 13.1152 25.7831 13.3969 26.1102 13.7137L30.2947 12.9279Z" fill="#E5A630"/>
<path d="M23.4938 23.0399C23.4938 23.0399 25.833 19.0111 26.3533 18.089C25.8556 18.6032 25.4146 18.8586 25.0047 18.9927L23.4938 23.0399Z" fill="#109155"/>
</g>
<path d="M45.052 20.596C44.404 20.596 43.808 20.492 43.264 20.284C42.72 20.068 42.248 19.768 41.848 19.384C41.448 18.992 41.136 18.536 40.912 18.016C40.688 17.496 40.576 16.924 40.576 16.3C40.576 15.676 40.688 15.104 40.912 14.584C41.136 14.064 41.448 13.612 41.848 13.228C42.256 12.836 42.732 12.536 43.276 12.328C43.82 12.112 44.42 12.004 45.076 12.004C45.74 12.004 46.348 12.112 46.9 12.328C47.452 12.544 47.92 12.868 48.304 13.3L47.56 14.044C47.216 13.708 46.84 13.464 46.432 13.312C46.032 13.152 45.596 13.072 45.124 13.072C44.644 13.072 44.196 13.152 43.78 13.312C43.372 13.472 43.016 13.696 42.712 13.984C42.416 14.272 42.184 14.616 42.016 15.016C41.856 15.408 41.776 15.836 41.776 16.3C41.776 16.756 41.856 17.184 42.016 17.584C42.184 17.976 42.416 18.32 42.712 18.616C43.016 18.904 43.372 19.128 43.78 19.288C44.188 19.448 44.632 19.528 45.112 19.528C45.56 19.528 45.988 19.46 46.396 19.324C46.812 19.18 47.196 18.944 47.548 18.616L48.232 19.528C47.816 19.88 47.328 20.148 46.768 20.332C46.216 20.508 45.644 20.596 45.052 20.596ZM47.08 19.372V16.252H48.232V19.528L47.08 19.372ZM53.1935 20.572C52.5135 20.572 51.9135 20.432 51.3935 20.152C50.8815 19.872 50.4815 19.488 50.1935 19C49.9135 18.512 49.7735 17.952 49.7735 17.32C49.7735 16.688 49.9095 16.128 50.1815 15.64C50.4615 15.152 50.8415 14.772 51.3215 14.5C51.8095 14.22 52.3575 14.08 52.9655 14.08C53.5815 14.08 54.1255 14.216 54.5975 14.488C55.0695 14.76 55.4375 15.144 55.7015 15.64C55.9735 16.128 56.1095 16.7 56.1095 17.356C56.1095 17.404 56.1055 17.46 56.0975 17.524C56.0975 17.588 56.0935 17.648 56.0855 17.704H50.6735V16.876H55.4855L55.0175 17.164C55.0255 16.756 54.9415 16.392 54.7655 16.072C54.5895 15.752 54.3455 15.504 54.0335 15.328C53.7295 15.144 53.3735 15.052 52.9655 15.052C52.5655 15.052 52.2095 15.144 51.8975 15.328C51.5855 15.504 51.3415 15.756 51.1655 16.084C50.9895 16.404 50.9015 16.772 50.9015 17.188V17.38C50.9015 17.804 50.9975 18.184 51.1895 18.52C51.3895 18.848 51.6655 19.104 52.0175 19.288C52.3695 19.472 52.7735 19.564 53.2295 19.564C53.6055 19.564 53.9455 19.5 54.2495 19.372C54.5615 19.244 54.8335 19.052 55.0655 18.796L55.7015 19.54C55.4135 19.876 55.0535 20.132 54.6215 20.308C54.1975 20.484 53.7215 20.572 53.1935 20.572ZM59.8932 20.572C59.2532 20.572 58.7572 20.4 58.4052 20.056C58.0532 19.712 57.8772 19.22 57.8772 18.58V12.748H59.0292V18.532C59.0292 18.876 59.1132 19.14 59.2812 19.324C59.4572 19.508 59.7052 19.6 60.0252 19.6C60.3852 19.6 60.6852 19.5 60.9252 19.3L61.2852 20.128C61.1092 20.28 60.8972 20.392 60.6492 20.464C60.4092 20.536 60.1572 20.572 59.8932 20.572ZM56.7972 15.088V14.14H60.8532V15.088H56.7972ZM65.9006 20.5V14.14H67.0526V20.5H65.9006ZM66.4766 12.916C66.2526 12.916 66.0646 12.844 65.9126 12.7C65.7686 12.556 65.6966 12.38 65.6966 12.172C65.6966 11.956 65.7686 11.776 65.9126 11.632C66.0646 11.488 66.2526 11.416 66.4766 11.416C66.7006 11.416 66.8846 11.488 67.0286 11.632C67.1806 11.768 67.2566 11.94 67.2566 12.148C67.2566 12.364 67.1846 12.548 67.0406 12.7C66.8966 12.844 66.7086 12.916 66.4766 12.916ZM71.4362 20.572C70.7962 20.572 70.3002 20.4 69.9482 20.056C69.5962 19.712 69.4202 19.22 69.4202 18.58V12.748H70.5722V18.532C70.5722 18.876 70.6562 19.14 70.8242 19.324C71.0002 19.508 71.2482 19.6 71.5682 19.6C71.9282 19.6 72.2282 19.5 72.4682 19.3L72.8282 20.128C72.6522 20.28 72.4402 20.392 72.1922 20.464C71.9522 20.536 71.7002 20.572 71.4362 20.572ZM68.3402 15.088V14.14H72.3962V15.088H68.3402ZM80.1676 20.572C79.5276 20.572 78.9596 20.432 78.4636 20.152C77.9676 19.872 77.5756 19.488 77.2876 19C76.9996 18.504 76.8556 17.944 76.8556 17.32C76.8556 16.688 76.9996 16.128 77.2876 15.64C77.5756 15.152 77.9676 14.772 78.4636 14.5C78.9596 14.22 79.5276 14.08 80.1676 14.08C80.7996 14.08 81.3636 14.22 81.8596 14.5C82.3636 14.772 82.7556 15.152 83.0356 15.64C83.3236 16.12 83.4676 16.68 83.4676 17.32C83.4676 17.952 83.3236 18.512 83.0356 19C82.7556 19.488 82.3636 19.872 81.8596 20.152C81.3636 20.432 80.7996 20.572 80.1676 20.572ZM80.1676 19.564C80.5756 19.564 80.9396 19.472 81.2596 19.288C81.5876 19.104 81.8436 18.844 82.0276 18.508C82.2116 18.164 82.3036 17.768 82.3036 17.32C82.3036 16.864 82.2116 16.472 82.0276 16.144C81.8436 15.808 81.5876 15.548 81.2596 15.364C80.9396 15.18 80.5756 15.088 80.1676 15.088C79.7596 15.088 79.3956 15.18 79.0756 15.364C78.7556 15.548 78.4996 15.808 78.3076 16.144C78.1156 16.472 78.0196 16.864 78.0196 17.32C78.0196 17.768 78.1156 18.164 78.3076 18.508C78.4996 18.844 78.7556 19.104 79.0756 19.288C79.3956 19.472 79.7596 19.564 80.1676 19.564ZM88.4568 14.08C88.9768 14.08 89.4328 14.18 89.8248 14.38C90.2248 14.58 90.5368 14.884 90.7608 15.292C90.9848 15.7 91.0968 16.216 91.0968 16.84V20.5H89.9448V16.972C89.9448 16.356 89.7928 15.892 89.4888 15.58C89.1928 15.268 88.7728 15.112 88.2288 15.112C87.8208 15.112 87.4648 15.192 87.1608 15.352C86.8568 15.512 86.6208 15.748 86.4528 16.06C86.2928 16.372 86.2128 16.76 86.2128 17.224V20.5H85.0608V14.14H86.1648V15.856L85.9848 15.4C86.1928 14.984 86.5128 14.66 86.9448 14.428C87.3768 14.196 87.8808 14.08 88.4568 14.08ZM100.375 20.596C99.7354 20.596 99.1434 20.492 98.5994 20.284C98.0634 20.068 97.5954 19.768 97.1954 19.384C96.8034 18.992 96.4954 18.536 96.2714 18.016C96.0474 17.496 95.9354 16.924 95.9354 16.3C95.9354 15.676 96.0474 15.104 96.2714 14.584C96.4954 14.064 96.8074 13.612 97.2074 13.228C97.6074 12.836 98.0754 12.536 98.6114 12.328C99.1554 12.112 99.7474 12.004 100.387 12.004C101.035 12.004 101.631 12.116 102.175 12.34C102.727 12.556 103.195 12.88 103.579 13.312L102.799 14.068C102.479 13.732 102.119 13.484 101.719 13.324C101.319 13.156 100.891 13.072 100.435 13.072C99.9634 13.072 99.5234 13.152 99.1154 13.312C98.7154 13.472 98.3674 13.696 98.0714 13.984C97.7754 14.272 97.5434 14.616 97.3754 15.016C97.2154 15.408 97.1354 15.836 97.1354 16.3C97.1354 16.764 97.2154 17.196 97.3754 17.596C97.5434 17.988 97.7754 18.328 98.0714 18.616C98.3674 18.904 98.7154 19.128 99.1154 19.288C99.5234 19.448 99.9634 19.528 100.435 19.528C100.891 19.528 101.319 19.448 101.719 19.288C102.119 19.12 102.479 18.864 102.799 18.52L103.579 19.276C103.195 19.708 102.727 20.036 102.175 20.26C101.631 20.484 101.031 20.596 100.375 20.596ZM108.519 14.08C109.039 14.08 109.495 14.18 109.887 14.38C110.287 14.58 110.599 14.884 110.823 15.292C111.047 15.7 111.159 16.216 111.159 16.84V20.5H110.007V16.972C110.007 16.356 109.855 15.892 109.551 15.58C109.255 15.268 108.835 15.112 108.291 15.112C107.883 15.112 107.527 15.192 107.223 15.352C106.919 15.512 106.683 15.748 106.515 16.06C106.355 16.372 106.275 16.76 106.275 17.224V20.5H105.123V11.596H106.275V15.856L106.047 15.4C106.255 14.984 106.575 14.66 107.007 14.428C107.439 14.196 107.943 14.08 108.519 14.08ZM113.291 20.5V14.14H114.395V15.868L114.287 15.436C114.463 14.996 114.759 14.66 115.175 14.428C115.591 14.196 116.103 14.08 116.711 14.08V15.196C116.663 15.188 116.615 15.184 116.567 15.184C116.527 15.184 116.487 15.184 116.447 15.184C115.831 15.184 115.343 15.368 114.983 15.736C114.623 16.104 114.443 16.636 114.443 17.332V20.5H113.291ZM120.796 20.572C120.156 20.572 119.588 20.432 119.092 20.152C118.596 19.872 118.204 19.488 117.916 19C117.628 18.504 117.484 17.944 117.484 17.32C117.484 16.688 117.628 16.128 117.916 15.64C118.204 15.152 118.596 14.772 119.092 14.5C119.588 14.22 120.156 14.08 120.796 14.08C121.428 14.08 121.992 14.22 122.488 14.5C122.992 14.772 123.384 15.152 123.664 15.64C123.952 16.12 124.096 16.68 124.096 17.32C124.096 17.952 123.952 18.512 123.664 19C123.384 19.488 122.992 19.872 122.488 20.152C121.992 20.432 121.428 20.572 120.796 20.572ZM120.796 19.564C121.204 19.564 121.568 19.472 121.888 19.288C122.216 19.104 122.472 18.844 122.656 18.508C122.84 18.164 122.932 17.768 122.932 17.32C122.932 16.864 122.84 16.472 122.656 16.144C122.472 15.808 122.216 15.548 121.888 15.364C121.568 15.18 121.204 15.088 120.796 15.088C120.388 15.088 120.024 15.18 119.704 15.364C119.384 15.548 119.128 15.808 118.936 16.144C118.744 16.472 118.648 16.864 118.648 17.32C118.648 17.768 118.744 18.164 118.936 18.508C119.128 18.844 119.384 19.104 119.704 19.288C120.024 19.472 120.388 19.564 120.796 19.564ZM133.646 14.08C134.158 14.08 134.61 14.18 135.002 14.38C135.394 14.58 135.698 14.884 135.914 15.292C136.138 15.7 136.25 16.216 136.25 16.84V20.5H135.098V16.972C135.098 16.356 134.954 15.892 134.666 15.58C134.378 15.268 133.974 15.112 133.454 15.112C133.07 15.112 132.734 15.192 132.446 15.352C132.158 15.512 131.934 15.748 131.774 16.06C131.622 16.372 131.546 16.76 131.546 17.224V20.5H130.394V16.972C130.394 16.356 130.25 15.892 129.962 15.58C129.682 15.268 129.278 15.112 128.75 15.112C128.374 15.112 128.042 15.192 127.754 15.352C127.466 15.512 127.242 15.748 127.082 16.06C126.922 16.372 126.842 16.76 126.842 17.224V20.5H125.69V14.14H126.794V15.832L126.614 15.4C126.814 14.984 127.122 14.66 127.538 14.428C127.954 14.196 128.438 14.08 128.99 14.08C129.598 14.08 130.122 14.232 130.562 14.536C131.002 14.832 131.29 15.284 131.426 15.892L130.958 15.7C131.15 15.212 131.486 14.82 131.966 14.524C132.446 14.228 133.006 14.08 133.646 14.08ZM141.201 20.572C140.521 20.572 139.921 20.432 139.401 20.152C138.889 19.872 138.489 19.488 138.201 19C137.921 18.512 137.781 17.952 137.781 17.32C137.781 16.688 137.917 16.128 138.189 15.64C138.469 15.152 138.849 14.772 139.329 14.5C139.817 14.22 140.365 14.08 140.973 14.08C141.589 14.08 142.133 14.216 142.605 14.488C143.077 14.76 143.445 15.144 143.709 15.64C143.981 16.128 144.117 16.7 144.117 17.356C144.117 17.404 144.113 17.46 144.105 17.524C144.105 17.588 144.101 17.648 144.093 17.704H138.681V16.876H143.493L143.025 17.164C143.033 16.756 142.949 16.392 142.773 16.072C142.597 15.752 142.353 15.504 142.041 15.328C141.737 15.144 141.381 15.052 140.973 15.052C140.573 15.052 140.217 15.144 139.905 15.328C139.593 15.504 139.349 15.756 139.173 16.084C138.997 16.404 138.909 16.772 138.909 17.188V17.38C138.909 17.804 139.005 18.184 139.197 18.52C139.397 18.848 139.673 19.104 140.025 19.288C140.377 19.472 140.781 19.564 141.237 19.564C141.613 19.564 141.953 19.5 142.257 19.372C142.569 19.244 142.841 19.052 143.073 18.796L143.709 19.54C143.421 19.876 143.061 20.132 142.629 20.308C142.205 20.484 141.729 20.572 141.201 20.572Z" fill="#24292F"/>
<defs>
<clipPath id="clip0_870_2">
<rect width="16" height="16" fill="white" transform="translate(16 8)"/>
</clipPath>
</defs>
</svg>
