<svg width="144" height="32" viewBox="0 0 144 32" fill="none" xmlns="http://www.w3.org/2000/svg">
<rect x="0.5" y="0.5" width="143" height="31" rx="5.5" fill="#F4F9FD"/>
<rect x="0.5" y="0.5" width="143" height="31" rx="5.5" stroke="#D9DDE0"/>
<path d="M29.6234 19.4021C29.4363 19.5 29.2434 19.5862 29.0457 19.6603C28.4166 19.8957 27.7501 20.0156 27.0783 20.0143C24.485 20.0143 22.226 18.2305 22.226 15.9413C22.2294 15.6343 22.3146 15.3337 22.4729 15.0706C22.6311 14.8075 22.8568 14.5914 23.1265 14.4447C20.7809 14.5433 20.1781 16.9875 20.1781 18.4195C20.1781 22.4684 23.9096 22.8788 24.7136 22.8788C25.147 22.8788 25.8008 22.7528 26.1932 22.6289L26.265 22.6048C27.775 22.0828 29.0622 21.0623 29.9149 19.7112C29.941 19.6701 29.9527 19.6214 29.948 19.5729C29.9434 19.5244 29.9227 19.4788 29.8893 19.4433C29.8559 19.4079 29.8116 19.3846 29.7634 19.3771C29.7152 19.3697 29.666 19.3785 29.6234 19.4021Z" fill="url(#paint0_linear_870_36)"/>
<path opacity="0.35" d="M29.6234 19.4021C29.4363 19.5 29.2434 19.5862 29.0457 19.6603C28.4166 19.8957 27.7501 20.0156 27.0783 20.0143C24.485 20.0143 22.226 18.2305 22.226 15.9413C22.2294 15.6343 22.3146 15.3337 22.4729 15.0706C22.6311 14.8075 22.8568 14.5914 23.1265 14.4447C20.7809 14.5433 20.1781 16.9875 20.1781 18.4195C20.1781 22.4684 23.9096 22.8788 24.7136 22.8788C25.147 22.8788 25.8008 22.7528 26.1932 22.6289L26.265 22.6048C27.775 22.0828 29.0622 21.0623 29.9149 19.7112C29.941 19.6701 29.9527 19.6214 29.948 19.5729C29.9434 19.5244 29.9227 19.4788 29.8893 19.4433C29.8559 19.4079 29.8116 19.3846 29.7634 19.3771C29.7152 19.3697 29.666 19.3785 29.6234 19.4021Z" fill="url(#paint1_radial_870_36)"/>
<path d="M22.7544 22.1905C22.2656 21.8871 21.842 21.4895 21.5082 21.021C21.1277 20.4997 20.8659 19.9016 20.7411 19.2684C20.6163 18.6353 20.6316 17.9825 20.7858 17.3559C20.94 16.7293 21.2294 16.144 21.6338 15.6411C22.0381 15.1381 22.5476 14.7298 23.1265 14.4446C23.2975 14.3641 23.5896 14.2183 23.9782 14.2254C24.2519 14.2274 24.5215 14.2928 24.7657 14.4164C25.01 14.54 25.2223 14.7185 25.386 14.9378C25.6073 15.2333 25.7294 15.5913 25.7346 15.9605C25.7346 15.949 27.0751 11.5981 21.3503 11.5981C18.9445 11.5981 16.9661 13.8812 16.9661 15.8843C16.9566 16.9439 17.1833 17.9923 17.6298 18.9533C18.3594 20.51 19.6353 21.7446 21.2151 22.4226C22.795 23.1006 24.5689 23.1748 26.1999 22.6311C25.6288 22.8111 25.0255 22.8652 24.4315 22.7895C23.8375 22.7138 23.267 22.5102 22.7593 22.1927L22.7544 22.1905Z" fill="url(#paint2_linear_870_36)"/>
<path opacity="0.41" d="M22.7544 22.1905C22.2656 21.8871 21.842 21.4895 21.5082 21.021C21.1277 20.4997 20.8659 19.9016 20.7411 19.2684C20.6163 18.6353 20.6316 17.9825 20.7858 17.3559C20.94 16.7293 21.2294 16.144 21.6338 15.6411C22.0381 15.1381 22.5476 14.7298 23.1265 14.4446C23.2975 14.3641 23.5896 14.2183 23.9782 14.2254C24.2519 14.2274 24.5215 14.2928 24.7657 14.4164C25.01 14.54 25.2223 14.7185 25.386 14.9378C25.6073 15.2333 25.7294 15.5913 25.7346 15.9605C25.7346 15.949 27.0751 11.5981 21.3503 11.5981C18.9445 11.5981 16.9661 13.8812 16.9661 15.8843C16.9566 16.9439 17.1833 17.9923 17.6298 18.9533C18.3594 20.51 19.6353 21.7446 21.2151 22.4226C22.795 23.1006 24.5689 23.1748 26.1999 22.6311C25.6288 22.8111 25.0255 22.8652 24.4315 22.7895C23.8375 22.7138 23.267 22.5102 22.7593 22.1927L22.7544 22.1905Z" fill="url(#paint3_radial_870_36)"/>
<path d="M25.3081 17.1179C25.2637 17.1755 25.1273 17.2549 25.1273 17.4281C25.1273 17.5712 25.2204 17.7087 25.3859 17.8243C26.174 18.3724 27.6597 18.3 27.6635 18.3C28.2475 18.2986 28.8204 18.1406 29.3224 17.8424C29.8289 17.5467 30.2493 17.1237 30.5418 16.6153C30.8343 16.107 30.9889 15.531 30.9901 14.9445C31.0043 13.7163 30.5517 12.8997 30.3686 12.538C29.2073 10.2665 26.7006 8.95996 23.9747 8.95996C22.1313 8.95978 20.3618 9.68528 19.0491 10.9795C17.7364 12.2738 16.9859 14.0328 16.96 15.8761C16.9863 13.8736 18.9767 12.2564 21.3442 12.2564C21.536 12.2564 22.6299 12.275 23.6459 12.8082C24.5414 13.2784 25.0105 13.8462 25.3366 14.409C25.6753 14.9938 25.7356 15.7325 25.7356 16.0268C25.7356 16.3211 25.5854 16.7573 25.3081 17.1179Z" fill="url(#paint4_radial_870_36)"/>
<path d="M25.3081 17.1179C25.2637 17.1755 25.1273 17.2549 25.1273 17.4281C25.1273 17.5712 25.2204 17.7087 25.3859 17.8243C26.174 18.3724 27.6597 18.3 27.6635 18.3C28.2475 18.2986 28.8204 18.1406 29.3224 17.8424C29.8289 17.5467 30.2493 17.1237 30.5418 16.6153C30.8343 16.107 30.9889 15.531 30.9901 14.9445C31.0043 13.7163 30.5517 12.8997 30.3686 12.538C29.2073 10.2665 26.7006 8.95996 23.9747 8.95996C22.1313 8.95978 20.3618 9.68528 19.0491 10.9795C17.7364 12.2738 16.9859 14.0328 16.96 15.8761C16.9863 13.8736 18.9767 12.2564 21.3442 12.2564C21.536 12.2564 22.6299 12.275 23.6459 12.8082C24.5414 13.2784 25.0105 13.8462 25.3366 14.409C25.6753 14.9938 25.7356 15.7325 25.7356 16.0268C25.7356 16.3211 25.5854 16.7573 25.3081 17.1179Z" fill="url(#paint5_radial_870_36)"/>
<path d="M45.052 20.596C44.404 20.596 43.808 20.492 43.264 20.284C42.72 20.068 42.248 19.768 41.848 19.384C41.448 18.992 41.136 18.536 40.912 18.016C40.688 17.496 40.576 16.924 40.576 16.3C40.576 15.676 40.688 15.104 40.912 14.584C41.136 14.064 41.448 13.612 41.848 13.228C42.256 12.836 42.732 12.536 43.276 12.328C43.82 12.112 44.42 12.004 45.076 12.004C45.74 12.004 46.348 12.112 46.9 12.328C47.452 12.544 47.92 12.868 48.304 13.3L47.56 14.044C47.216 13.708 46.84 13.464 46.432 13.312C46.032 13.152 45.596 13.072 45.124 13.072C44.644 13.072 44.196 13.152 43.78 13.312C43.372 13.472 43.016 13.696 42.712 13.984C42.416 14.272 42.184 14.616 42.016 15.016C41.856 15.408 41.776 15.836 41.776 16.3C41.776 16.756 41.856 17.184 42.016 17.584C42.184 17.976 42.416 18.32 42.712 18.616C43.016 18.904 43.372 19.128 43.78 19.288C44.188 19.448 44.632 19.528 45.112 19.528C45.56 19.528 45.988 19.46 46.396 19.324C46.812 19.18 47.196 18.944 47.548 18.616L48.232 19.528C47.816 19.88 47.328 20.148 46.768 20.332C46.216 20.508 45.644 20.596 45.052 20.596ZM47.08 19.372V16.252H48.232V19.528L47.08 19.372ZM53.1935 20.572C52.5135 20.572 51.9135 20.432 51.3935 20.152C50.8815 19.872 50.4815 19.488 50.1935 19C49.9135 18.512 49.7735 17.952 49.7735 17.32C49.7735 16.688 49.9095 16.128 50.1815 15.64C50.4615 15.152 50.8415 14.772 51.3215 14.5C51.8095 14.22 52.3575 14.08 52.9655 14.08C53.5815 14.08 54.1255 14.216 54.5975 14.488C55.0695 14.76 55.4375 15.144 55.7015 15.64C55.9735 16.128 56.1095 16.7 56.1095 17.356C56.1095 17.404 56.1055 17.46 56.0975 17.524C56.0975 17.588 56.0935 17.648 56.0855 17.704H50.6735V16.876H55.4855L55.0175 17.164C55.0255 16.756 54.9415 16.392 54.7655 16.072C54.5895 15.752 54.3455 15.504 54.0335 15.328C53.7295 15.144 53.3735 15.052 52.9655 15.052C52.5655 15.052 52.2095 15.144 51.8975 15.328C51.5855 15.504 51.3415 15.756 51.1655 16.084C50.9895 16.404 50.9015 16.772 50.9015 17.188V17.38C50.9015 17.804 50.9975 18.184 51.1895 18.52C51.3895 18.848 51.6655 19.104 52.0175 19.288C52.3695 19.472 52.7735 19.564 53.2295 19.564C53.6055 19.564 53.9455 19.5 54.2495 19.372C54.5615 19.244 54.8335 19.052 55.0655 18.796L55.7015 19.54C55.4135 19.876 55.0535 20.132 54.6215 20.308C54.1975 20.484 53.7215 20.572 53.1935 20.572ZM59.8932 20.572C59.2532 20.572 58.7572 20.4 58.4052 20.056C58.0532 19.712 57.8772 19.22 57.8772 18.58V12.748H59.0292V18.532C59.0292 18.876 59.1132 19.14 59.2812 19.324C59.4572 19.508 59.7052 19.6 60.0252 19.6C60.3852 19.6 60.6852 19.5 60.9252 19.3L61.2852 20.128C61.1092 20.28 60.8972 20.392 60.6492 20.464C60.4092 20.536 60.1572 20.572 59.8932 20.572ZM56.7972 15.088V14.14H60.8532V15.088H56.7972ZM65.9006 20.5V14.14H67.0526V20.5H65.9006ZM66.4766 12.916C66.2526 12.916 66.0646 12.844 65.9126 12.7C65.7686 12.556 65.6966 12.38 65.6966 12.172C65.6966 11.956 65.7686 11.776 65.9126 11.632C66.0646 11.488 66.2526 11.416 66.4766 11.416C66.7006 11.416 66.8846 11.488 67.0286 11.632C67.1806 11.768 67.2566 11.94 67.2566 12.148C67.2566 12.364 67.1846 12.548 67.0406 12.7C66.8966 12.844 66.7086 12.916 66.4766 12.916ZM71.4362 20.572C70.7962 20.572 70.3002 20.4 69.9482 20.056C69.5962 19.712 69.4202 19.22 69.4202 18.58V12.748H70.5722V18.532C70.5722 18.876 70.6562 19.14 70.8242 19.324C71.0002 19.508 71.2482 19.6 71.5682 19.6C71.9282 19.6 72.2282 19.5 72.4682 19.3L72.8282 20.128C72.6522 20.28 72.4402 20.392 72.1922 20.464C71.9522 20.536 71.7002 20.572 71.4362 20.572ZM68.3402 15.088V14.14H72.3962V15.088H68.3402ZM80.1676 20.572C79.5276 20.572 78.9596 20.432 78.4636 20.152C77.9676 19.872 77.5756 19.488 77.2876 19C76.9996 18.504 76.8556 17.944 76.8556 17.32C76.8556 16.688 76.9996 16.128 77.2876 15.64C77.5756 15.152 77.9676 14.772 78.4636 14.5C78.9596 14.22 79.5276 14.08 80.1676 14.08C80.7996 14.08 81.3636 14.22 81.8596 14.5C82.3636 14.772 82.7556 15.152 83.0356 15.64C83.3236 16.12 83.4676 16.68 83.4676 17.32C83.4676 17.952 83.3236 18.512 83.0356 19C82.7556 19.488 82.3636 19.872 81.8596 20.152C81.3636 20.432 80.7996 20.572 80.1676 20.572ZM80.1676 19.564C80.5756 19.564 80.9396 19.472 81.2596 19.288C81.5876 19.104 81.8436 18.844 82.0276 18.508C82.2116 18.164 82.3036 17.768 82.3036 17.32C82.3036 16.864 82.2116 16.472 82.0276 16.144C81.8436 15.808 81.5876 15.548 81.2596 15.364C80.9396 15.18 80.5756 15.088 80.1676 15.088C79.7596 15.088 79.3956 15.18 79.0756 15.364C78.7556 15.548 78.4996 15.808 78.3076 16.144C78.1156 16.472 78.0196 16.864 78.0196 17.32C78.0196 17.768 78.1156 18.164 78.3076 18.508C78.4996 18.844 78.7556 19.104 79.0756 19.288C79.3956 19.472 79.7596 19.564 80.1676 19.564ZM88.4568 14.08C88.9768 14.08 89.4328 14.18 89.8248 14.38C90.2248 14.58 90.5368 14.884 90.7608 15.292C90.9848 15.7 91.0968 16.216 91.0968 16.84V20.5H89.9448V16.972C89.9448 16.356 89.7928 15.892 89.4888 15.58C89.1928 15.268 88.7728 15.112 88.2288 15.112C87.8208 15.112 87.4648 15.192 87.1608 15.352C86.8568 15.512 86.6208 15.748 86.4528 16.06C86.2928 16.372 86.2128 16.76 86.2128 17.224V20.5H85.0608V14.14H86.1648V15.856L85.9848 15.4C86.1928 14.984 86.5128 14.66 86.9448 14.428C87.3768 14.196 87.8808 14.08 88.4568 14.08ZM97.7114 15.724H102.031V16.744H97.7114V15.724ZM97.8194 19.456H102.715V20.5H96.6194V12.1H102.547V13.144H97.8194V19.456ZM107.036 20.572C106.42 20.572 105.868 20.436 105.38 20.164C104.9 19.892 104.52 19.512 104.24 19.024C103.96 18.536 103.82 17.968 103.82 17.32C103.82 16.672 103.96 16.108 104.24 15.628C104.52 15.14 104.9 14.76 105.38 14.488C105.868 14.216 106.42 14.08 107.036 14.08C107.572 14.08 108.056 14.2 108.488 14.44C108.92 14.68 109.264 15.04 109.52 15.52C109.784 16 109.916 16.6 109.916 17.32C109.916 18.04 109.788 18.64 109.532 19.12C109.284 19.6 108.944 19.964 108.512 20.212C108.08 20.452 107.588 20.572 107.036 20.572ZM107.132 19.564C107.532 19.564 107.892 19.472 108.212 19.288C108.54 19.104 108.796 18.844 108.98 18.508C109.172 18.164 109.268 17.768 109.268 17.32C109.268 16.864 109.172 16.472 108.98 16.144C108.796 15.808 108.54 15.548 108.212 15.364C107.892 15.18 107.532 15.088 107.132 15.088C106.724 15.088 106.36 15.18 106.04 15.364C105.72 15.548 105.464 15.808 105.272 16.144C105.08 16.472 104.984 16.864 104.984 17.32C104.984 17.768 105.08 18.164 105.272 18.508C105.464 18.844 105.72 19.104 106.04 19.288C106.36 19.472 106.724 19.564 107.132 19.564ZM109.304 20.5V18.784L109.376 17.308L109.256 15.832V11.596H110.408V20.5H109.304ZM115.372 22.9C114.788 22.9 114.22 22.816 113.668 22.648C113.124 22.488 112.68 22.256 112.336 21.952L112.888 21.064C113.184 21.32 113.548 21.52 113.98 21.664C114.412 21.816 114.864 21.892 115.336 21.892C116.088 21.892 116.64 21.716 116.992 21.364C117.344 21.012 117.52 20.476 117.52 19.756V18.412L117.64 17.152L117.58 15.88V14.14H118.672V19.636C118.672 20.756 118.392 21.58 117.832 22.108C117.272 22.636 116.452 22.9 115.372 22.9ZM115.228 20.236C114.612 20.236 114.06 20.108 113.572 19.852C113.092 19.588 112.708 19.224 112.42 18.76C112.14 18.296 112 17.76 112 17.152C112 16.536 112.14 16 112.42 15.544C112.708 15.08 113.092 14.72 113.572 14.464C114.06 14.208 114.612 14.08 115.228 14.08C115.772 14.08 116.268 14.192 116.716 14.416C117.164 14.632 117.52 14.968 117.784 15.424C118.056 15.88 118.192 16.456 118.192 17.152C118.192 17.84 118.056 18.412 117.784 18.868C117.52 19.324 117.164 19.668 116.716 19.9C116.268 20.124 115.772 20.236 115.228 20.236ZM115.36 19.228C115.784 19.228 116.16 19.14 116.488 18.964C116.816 18.788 117.072 18.544 117.256 18.232C117.448 17.92 117.544 17.56 117.544 17.152C117.544 16.744 117.448 16.384 117.256 16.072C117.072 15.76 116.816 15.52 116.488 15.352C116.16 15.176 115.784 15.088 115.36 15.088C114.936 15.088 114.556 15.176 114.22 15.352C113.892 15.52 113.632 15.76 113.44 16.072C113.256 16.384 113.164 16.744 113.164 17.152C113.164 17.56 113.256 17.92 113.44 18.232C113.632 18.544 113.892 18.788 114.22 18.964C114.556 19.14 114.936 19.228 115.36 19.228ZM123.705 20.572C123.025 20.572 122.425 20.432 121.905 20.152C121.393 19.872 120.993 19.488 120.705 19C120.425 18.512 120.285 17.952 120.285 17.32C120.285 16.688 120.421 16.128 120.693 15.64C120.973 15.152 121.353 14.772 121.833 14.5C122.321 14.22 122.869 14.08 123.477 14.08C124.093 14.08 124.637 14.216 125.109 14.488C125.581 14.76 125.949 15.144 126.213 15.64C126.485 16.128 126.621 16.7 126.621 17.356C126.621 17.404 126.617 17.46 126.609 17.524C126.609 17.588 126.605 17.648 126.597 17.704H121.185V16.876H125.997L125.529 17.164C125.537 16.756 125.453 16.392 125.277 16.072C125.101 15.752 124.857 15.504 124.545 15.328C124.241 15.144 123.885 15.052 123.477 15.052C123.077 15.052 122.721 15.144 122.409 15.328C122.097 15.504 121.853 15.756 121.677 16.084C121.501 16.404 121.413 16.772 121.413 17.188V17.38C121.413 17.804 121.509 18.184 121.701 18.52C121.901 18.848 122.177 19.104 122.529 19.288C122.881 19.472 123.285 19.564 123.741 19.564C124.117 19.564 124.457 19.5 124.761 19.372C125.073 19.244 125.345 19.052 125.577 18.796L126.213 19.54C125.925 19.876 125.565 20.132 125.133 20.308C124.709 20.484 124.233 20.572 123.705 20.572Z" fill="#24292F"/>
<defs>
<linearGradient id="paint0_linear_870_36" x1="20.1781" y1="18.6628" x2="29.9516" y2="18.6628" gradientUnits="userSpaceOnUse">
<stop stop-color="#0C59A4"/>
<stop offset="1" stop-color="#114A8B"/>
</linearGradient>
<radialGradient id="paint1_radial_870_36" cx="0" cy="0" r="1" gradientUnits="userSpaceOnUse" gradientTransform="translate(25.5762 18.7399) scale(5.2271 4.96577)">
<stop offset="0.72" stop-opacity="0"/>
<stop offset="0.95" stop-opacity="0.53"/>
<stop offset="1"/>
</radialGradient>
<linearGradient id="paint2_linear_870_36" x1="25.3307" y1="14.4232" x2="19.2262" y2="21.0725" gradientUnits="userSpaceOnUse">
<stop stop-color="#1B9DE2"/>
<stop offset="0.16" stop-color="#1595DF"/>
<stop offset="0.67" stop-color="#0680D7"/>
<stop offset="1" stop-color="#0078D4"/>
</linearGradient>
<radialGradient id="paint3_radial_870_36" cx="0" cy="0" r="1" gradientUnits="userSpaceOnUse" gradientTransform="translate(20.8289 19.8662) rotate(-81.3844) scale(7.86017 6.35023)">
<stop offset="0.76" stop-opacity="0"/>
<stop offset="0.95" stop-opacity="0.5"/>
<stop offset="1"/>
</radialGradient>
<radialGradient id="paint4_radial_870_36" cx="0" cy="0" r="1" gradientUnits="userSpaceOnUse" gradientTransform="translate(18.3773 11.5564) rotate(92.2906) scale(11.1026 23.6463)">
<stop stop-color="#35C1F1"/>
<stop offset="0.11" stop-color="#34C1ED"/>
<stop offset="0.23" stop-color="#2FC2DF"/>
<stop offset="0.31" stop-color="#2BC3D2"/>
<stop offset="0.67" stop-color="#36C752"/>
</radialGradient>
<radialGradient id="paint5_radial_870_36" cx="0" cy="0" r="1" gradientUnits="userSpaceOnUse" gradientTransform="translate(30.1166 13.202) rotate(73.7398) scale(5.33453 4.33803)">
<stop stop-color="#66EB6E"/>
<stop offset="1" stop-color="#66EB6E" stop-opacity="0"/>
</radialGradient>
</defs>
</svg>
