<svg width="153" height="32" viewBox="0 0 153 32" fill="none" xmlns="http://www.w3.org/2000/svg">
<rect x="0.5" y="0.5" width="152" height="31" rx="5.5" fill="#F4F9FD"/>
<rect x="0.5" y="0.5" width="152" height="31" rx="5.5" stroke="#D9DDE0"/>
<g clip-path="url(#clip0_871_2)">
<path d="M30.5755 13.616C30.2654 12.8754 29.6452 12.0782 29.1563 11.8283C29.5044 12.5015 29.7462 13.2245 29.8732 13.9717V13.9845C29.076 11.9906 27.7207 11.188 26.6134 9.43681C26.555 9.34925 26.5003 9.25987 26.4456 9.16683C26.4146 9.11211 26.3908 9.06468 26.3671 9.0209C26.321 8.93171 26.2855 8.83743 26.2613 8.73998C26.2614 8.73571 26.26 8.73155 26.2573 8.72821C26.2547 8.72488 26.2509 8.72259 26.2467 8.72174C26.2409 8.71949 26.2344 8.71949 26.2285 8.72174V8.72538C26.2285 8.72903 26.223 8.72538 26.223 8.72538V8.72174C24.4499 9.76151 23.8461 11.6878 23.7914 12.6492C23.0818 12.6984 22.4035 12.9603 21.845 13.4007C21.7868 13.3513 21.7259 13.305 21.6626 13.2621C21.5012 12.6965 21.4949 12.098 21.6444 11.5291C20.9913 11.8453 20.4111 12.2938 19.9406 12.8462C19.6578 12.4923 19.6779 11.3212 19.6943 11.0767C19.6111 11.1096 19.5316 11.1512 19.4572 11.2008C19.209 11.3775 18.9771 11.5759 18.764 11.7936C18.5234 12.0394 18.3037 12.3048 18.1073 12.5872C17.6528 13.2314 17.3304 13.9592 17.1587 14.7287L17.146 14.778C17.1332 14.8382 17.0839 15.1501 17.0766 15.2158V15.234C17.0153 15.5555 16.9775 15.8811 16.9635 16.2081L16.9635 16.2446C16.9664 18.0139 17.6325 19.7178 18.8303 21.0199C20.0281 22.3221 21.6706 23.1278 23.4334 23.2781C25.1963 23.4284 26.9515 22.9123 28.3524 21.8317C29.7533 20.7511 30.6982 19.1845 31.0005 17.4413C31.0133 17.3501 31.0224 17.2588 31.0334 17.1676C31.1798 15.9642 31.023 14.7433 30.5773 13.616H30.5755ZM22.4269 19.1487C22.4598 19.1669 22.4908 19.1852 22.5236 19.1979L22.5291 19.2016C22.4962 19.1846 22.4628 19.1663 22.4288 19.1469L22.4269 19.1487ZM29.875 13.9826V13.9772V13.9845V13.9826Z" fill="url(#paint0_linear_871_2)"/>
<path d="M30.5755 13.616C30.2654 12.8754 29.6452 12.0782 29.1563 11.8283C29.5044 12.5015 29.7462 13.2245 29.8732 13.9717V13.9863C30.4186 15.5456 30.3401 17.2554 29.6543 18.7583C28.8444 20.4967 26.8815 22.279 23.8115 22.1914C20.4951 22.1002 17.5728 19.6376 17.0256 16.4124C16.927 15.9017 17.0256 15.6463 17.0766 15.2322C17.0087 15.5527 16.9709 15.8788 16.9635 16.2063V16.2428C16.9664 18.012 17.6325 19.716 18.8303 21.0181C20.0281 22.3203 21.6706 23.126 23.4334 23.2763C25.1963 23.4266 26.9515 22.9105 28.3524 21.8299C29.7533 20.7493 30.6982 19.1827 31.0005 17.4394C31.0133 17.3482 31.0224 17.257 31.0334 17.1658C31.1798 15.9624 31.023 14.7415 30.5773 13.6141L30.5755 13.616Z" fill="url(#paint1_radial_871_2)"/>
<path d="M30.5755 13.616C30.2654 12.8754 29.6452 12.0782 29.1563 11.8283C29.5044 12.5015 29.7462 13.2245 29.8732 13.9717V13.9863C30.4186 15.5456 30.3401 17.2554 29.6543 18.7583C28.8444 20.4967 26.8815 22.279 23.8115 22.1914C20.4951 22.1002 17.5728 19.6376 17.0256 16.4124C16.927 15.9017 17.0256 15.6463 17.0766 15.2322C17.0087 15.5527 16.9709 15.8788 16.9635 16.2063V16.2428C16.9664 18.012 17.6325 19.716 18.8303 21.0181C20.0281 22.3203 21.6706 23.126 23.4334 23.2763C25.1963 23.4266 26.9515 22.9105 28.3524 21.8299C29.7533 20.7493 30.6982 19.1827 31.0005 17.4394C31.0133 17.3482 31.0224 17.257 31.0334 17.1658C31.1798 15.9624 31.023 14.7415 30.5773 13.6141L30.5755 13.616Z" fill="url(#paint2_radial_871_2)"/>
<path d="M27.1388 14.4459C27.1571 14.4569 27.168 14.4678 27.1826 14.4788C27.0051 14.1635 26.784 13.8749 26.5259 13.6214C24.3296 11.4251 25.9513 8.85667 26.2249 8.72715V8.72168C24.4518 9.76146 23.848 11.6878 23.7933 12.6491C23.8754 12.6436 23.9575 12.6382 24.0414 12.6382C24.6711 12.6391 25.2894 12.8066 25.8334 13.1238C26.3774 13.441 26.8278 13.8965 27.1388 14.4441V14.4459Z" fill="url(#paint3_radial_871_2)"/>
<path d="M24.0468 14.8873C24.0341 15.0606 23.4139 15.668 23.195 15.668C21.1847 15.668 20.86 16.8829 20.86 16.8829C20.9476 17.9081 21.6627 18.7509 22.5237 19.1996L22.6441 19.2543C22.7134 19.2847 22.7827 19.3133 22.852 19.3401C23.1478 19.4453 23.4577 19.5055 23.7714 19.5188C27.2957 19.683 27.9779 15.305 25.435 14.0336C26.0349 13.9563 26.642 14.1045 27.1388 14.4495C26.8278 13.9019 26.3774 13.4464 25.8334 13.1292C25.2894 12.812 24.6711 12.6445 24.0414 12.6436C23.9575 12.6436 23.8772 12.6472 23.7933 12.6527C23.0837 12.7019 22.4054 12.9638 21.8469 13.4042C21.9564 13.4954 22.0767 13.6158 22.334 13.8694C22.8137 14.3437 24.0432 14.8307 24.0487 14.8909L24.0468 14.8873Z" fill="url(#paint4_radial_871_2)"/>
<path d="M24.0468 14.8873C24.0341 15.0606 23.4139 15.668 23.195 15.668C21.1847 15.668 20.86 16.8829 20.86 16.8829C20.9476 17.9081 21.6627 18.7509 22.5237 19.1996L22.6441 19.2543C22.7134 19.2847 22.7827 19.3133 22.852 19.3401C23.1478 19.4453 23.4577 19.5055 23.7714 19.5188C27.2957 19.683 27.9779 15.305 25.435 14.0336C26.0349 13.9563 26.642 14.1045 27.1388 14.4495C26.8278 13.9019 26.3774 13.4464 25.8334 13.1292C25.2894 12.812 24.6711 12.6445 24.0414 12.6436C23.9575 12.6436 23.8772 12.6472 23.7933 12.6527C23.0837 12.7019 22.4054 12.9638 21.8469 13.4042C21.9564 13.4954 22.0767 13.6158 22.334 13.8694C22.8137 14.3437 24.0432 14.8307 24.0487 14.8909L24.0468 14.8873Z" fill="url(#paint5_radial_871_2)"/>
<path d="M21.5185 13.1654C21.5732 13.2019 21.6224 13.2329 21.6644 13.2621C21.503 12.6965 21.4967 12.098 21.6462 11.5291C20.9931 11.8453 20.4129 12.2938 19.9424 12.8462C19.9789 12.8462 21.0004 12.8279 21.5185 13.1636V13.1654Z" fill="url(#paint6_radial_871_2)"/>
<path d="M17.0274 16.4124C17.5747 19.6358 20.4934 22.0984 23.8133 22.1914C26.8834 22.279 28.8444 20.4949 29.6543 18.7583C30.3402 17.2555 30.4186 15.5457 29.8732 13.9863V13.979V13.9717L29.8769 13.9845C30.125 15.6226 29.2931 17.2078 27.9907 18.2804L27.9852 18.2895C25.4496 20.3563 23.0235 19.5373 22.5309 19.2016C22.4945 19.1858 22.4598 19.1688 22.427 19.1505C20.9494 18.4446 20.3365 17.0965 20.4678 15.94C20.1168 15.9453 19.7718 15.8487 19.4746 15.6619C19.1773 15.475 18.9407 15.206 18.7932 14.8874C19.1816 14.6496 19.6244 14.5152 20.0794 14.497C20.5344 14.4788 20.9866 14.5774 21.3927 14.7835C22.2294 15.1629 23.1812 15.2002 24.045 14.8874C24.0414 14.8291 22.8119 14.3402 22.3303 13.8659C22.0749 13.6142 21.9545 13.4938 21.8451 13.4026C21.7868 13.3531 21.7259 13.3068 21.6626 13.2639C21.6207 13.2347 21.5751 13.2037 21.5167 13.1673C21.0023 12.8316 19.9771 12.8498 19.9425 12.8498H19.9388C19.6597 12.496 19.6779 11.3248 19.6944 11.0804C19.6112 11.1132 19.5317 11.1548 19.4572 11.2044C19.209 11.3818 18.977 11.5808 18.764 11.7991C18.5216 12.0441 18.3001 12.3089 18.1019 12.5908C17.6474 13.235 17.325 13.9629 17.1533 14.7324C17.1497 14.747 16.8979 15.8451 17.022 16.4143L17.0274 16.4124Z" fill="url(#paint7_radial_871_2)"/>
<path d="M26.5277 13.6215C26.7858 13.875 27.0068 14.1636 27.1844 14.4788C27.2208 14.5098 27.2573 14.539 27.2902 14.5664C28.8954 16.044 28.0563 18.1326 27.9925 18.2822C29.2931 17.2096 30.1267 15.6244 29.8768 13.9863C29.0742 11.9925 27.7207 11.1898 26.6116 9.43863C26.5568 9.35107 26.5021 9.26169 26.4474 9.16866C26.4164 9.11393 26.3927 9.0665 26.369 9.02272C26.3221 8.93304 26.286 8.83813 26.2613 8.73998C26.2614 8.73571 26.26 8.73155 26.2573 8.72821C26.2547 8.72488 26.2509 8.72259 26.2467 8.72174C26.2409 8.71949 26.2344 8.71949 26.2285 8.72174V8.72538C26.2285 8.72903 26.223 8.72538 26.223 8.72538C25.9494 8.85672 24.3259 11.4252 26.5258 13.6215H26.5277Z" fill="url(#paint8_radial_871_2)"/>
<path d="M27.2883 14.5664C27.2573 14.5372 27.2208 14.508 27.1825 14.4788L27.1387 14.446C26.6412 14.1012 26.0333 13.9536 25.4331 14.0319C27.976 15.3051 27.2938 19.6868 23.7695 19.519C23.4565 19.506 23.1472 19.4464 22.8519 19.342C22.7826 19.3177 22.7133 19.2897 22.644 19.2581C22.6038 19.2399 22.5655 19.2216 22.5254 19.2034H22.5309C23.0234 19.539 25.4495 20.3599 27.9888 18.2913L27.9924 18.284C28.0563 18.1381 28.8954 16.0458 27.2919 14.57L27.2883 14.5664Z" fill="url(#paint9_radial_871_2)"/>
<path d="M20.8581 16.883C20.8581 16.883 21.1865 15.6681 23.1931 15.6681C23.412 15.6681 24.0322 15.0607 24.0468 14.8838C23.1821 15.198 22.2288 15.1614 21.3908 14.7816C20.9847 14.5756 20.5326 14.4769 20.0775 14.4951C19.6225 14.5133 19.1797 14.6478 18.7914 14.8856C18.9393 15.2044 19.1767 15.4734 19.4746 15.6599C19.7725 15.8465 20.1181 15.9425 20.4696 15.9363C20.3364 17.0928 20.9475 18.4409 22.4269 19.1468C22.4597 19.1651 22.4908 19.1797 22.5236 19.1961C21.6608 18.7492 20.9475 17.9064 20.8581 16.8794V16.883Z" fill="url(#paint10_radial_871_2)"/>
<path d="M30.5756 13.616C30.2654 12.8754 29.6452 12.0782 29.1564 11.8283C29.5045 12.5015 29.7463 13.2245 29.8733 13.9717V13.9845C29.0761 11.9906 27.7207 11.188 26.6135 9.43681C26.5551 9.34925 26.5004 9.25987 26.4456 9.16683C26.4146 9.11211 26.3909 9.06468 26.3672 9.0209C26.3211 8.93171 26.2856 8.83743 26.2614 8.73998C26.2615 8.73571 26.2601 8.73155 26.2574 8.72821C26.2547 8.72488 26.251 8.72259 26.2468 8.72174C26.2409 8.71949 26.2344 8.71949 26.2286 8.72174V8.72538C26.2286 8.72903 26.2231 8.72538 26.2231 8.72538V8.72174C24.45 9.76151 23.8462 11.6878 23.7915 12.6492C23.8736 12.6437 23.9556 12.6382 24.0396 12.6382C24.6693 12.6391 25.2876 12.8067 25.8316 13.1239C26.3756 13.4411 26.826 13.8966 27.137 14.4442C26.6397 14.1005 26.0326 13.9536 25.4332 14.0319C27.9761 15.3052 27.2939 19.6868 23.7696 19.519C23.456 19.5062 23.1461 19.4466 22.8502 19.342C22.7809 19.3177 22.7116 19.2898 22.6422 19.2581L22.5219 19.2034H22.5273C22.4945 19.1876 22.461 19.1706 22.427 19.1523C22.4598 19.1706 22.4908 19.1888 22.5237 19.2016C21.6608 18.7547 20.9476 17.9119 20.8582 16.8849C20.8582 16.8849 21.1866 15.6718 23.1931 15.6718C23.412 15.6718 24.0323 15.0644 24.0469 14.8874C24.0432 14.8327 22.8137 14.3402 22.3321 13.8695C22.0768 13.6142 21.9545 13.4956 21.8469 13.4044C21.7887 13.3549 21.7278 13.3086 21.6645 13.2657C21.5031 12.7002 21.4968 12.1016 21.6463 11.5328C20.9932 11.849 20.413 12.2975 19.9425 12.8498C19.6597 12.4959 19.6798 11.3248 19.6962 11.0804C19.613 11.1132 19.5335 11.1548 19.4591 11.2044C19.2109 11.3812 18.979 11.5796 18.7659 11.7973C18.5253 12.043 18.3056 12.3085 18.1092 12.5908C17.6547 13.235 17.3323 13.9629 17.1606 14.7324L17.146 14.778C17.1333 14.8382 17.0731 15.1556 17.0639 15.2231C17.0095 15.549 16.9748 15.878 16.96 16.2081V16.2446C16.9628 18.0139 17.6289 19.7178 18.8267 21.0199C20.0245 22.3221 21.667 23.1278 23.4298 23.2781C25.1927 23.4284 26.9479 22.9123 28.3488 21.8317C29.7498 20.7511 30.6946 19.1845 30.9969 17.4413C31.0097 17.3501 31.0188 17.2588 31.0298 17.1676C31.1762 15.9642 31.0194 14.7433 30.5737 13.616H30.5756Z" fill="url(#paint11_linear_871_2)"/>
</g>
<path d="M45.052 20.596C44.404 20.596 43.808 20.492 43.264 20.284C42.72 20.068 42.248 19.768 41.848 19.384C41.448 18.992 41.136 18.536 40.912 18.016C40.688 17.496 40.576 16.924 40.576 16.3C40.576 15.676 40.688 15.104 40.912 14.584C41.136 14.064 41.448 13.612 41.848 13.228C42.256 12.836 42.732 12.536 43.276 12.328C43.82 12.112 44.42 12.004 45.076 12.004C45.74 12.004 46.348 12.112 46.9 12.328C47.452 12.544 47.92 12.868 48.304 13.3L47.56 14.044C47.216 13.708 46.84 13.464 46.432 13.312C46.032 13.152 45.596 13.072 45.124 13.072C44.644 13.072 44.196 13.152 43.78 13.312C43.372 13.472 43.016 13.696 42.712 13.984C42.416 14.272 42.184 14.616 42.016 15.016C41.856 15.408 41.776 15.836 41.776 16.3C41.776 16.756 41.856 17.184 42.016 17.584C42.184 17.976 42.416 18.32 42.712 18.616C43.016 18.904 43.372 19.128 43.78 19.288C44.188 19.448 44.632 19.528 45.112 19.528C45.56 19.528 45.988 19.46 46.396 19.324C46.812 19.18 47.196 18.944 47.548 18.616L48.232 19.528C47.816 19.88 47.328 20.148 46.768 20.332C46.216 20.508 45.644 20.596 45.052 20.596ZM47.08 19.372V16.252H48.232V19.528L47.08 19.372ZM53.1935 20.572C52.5135 20.572 51.9135 20.432 51.3935 20.152C50.8815 19.872 50.4815 19.488 50.1935 19C49.9135 18.512 49.7735 17.952 49.7735 17.32C49.7735 16.688 49.9095 16.128 50.1815 15.64C50.4615 15.152 50.8415 14.772 51.3215 14.5C51.8095 14.22 52.3575 14.08 52.9655 14.08C53.5815 14.08 54.1255 14.216 54.5975 14.488C55.0695 14.76 55.4375 15.144 55.7015 15.64C55.9735 16.128 56.1095 16.7 56.1095 17.356C56.1095 17.404 56.1055 17.46 56.0975 17.524C56.0975 17.588 56.0935 17.648 56.0855 17.704H50.6735V16.876H55.4855L55.0175 17.164C55.0255 16.756 54.9415 16.392 54.7655 16.072C54.5895 15.752 54.3455 15.504 54.0335 15.328C53.7295 15.144 53.3735 15.052 52.9655 15.052C52.5655 15.052 52.2095 15.144 51.8975 15.328C51.5855 15.504 51.3415 15.756 51.1655 16.084C50.9895 16.404 50.9015 16.772 50.9015 17.188V17.38C50.9015 17.804 50.9975 18.184 51.1895 18.52C51.3895 18.848 51.6655 19.104 52.0175 19.288C52.3695 19.472 52.7735 19.564 53.2295 19.564C53.6055 19.564 53.9455 19.5 54.2495 19.372C54.5615 19.244 54.8335 19.052 55.0655 18.796L55.7015 19.54C55.4135 19.876 55.0535 20.132 54.6215 20.308C54.1975 20.484 53.7215 20.572 53.1935 20.572ZM59.8932 20.572C59.2532 20.572 58.7572 20.4 58.4052 20.056C58.0532 19.712 57.8772 19.22 57.8772 18.58V12.748H59.0292V18.532C59.0292 18.876 59.1132 19.14 59.2812 19.324C59.4572 19.508 59.7052 19.6 60.0252 19.6C60.3852 19.6 60.6852 19.5 60.9252 19.3L61.2852 20.128C61.1092 20.28 60.8972 20.392 60.6492 20.464C60.4092 20.536 60.1572 20.572 59.8932 20.572ZM56.7972 15.088V14.14H60.8532V15.088H56.7972ZM65.9006 20.5V14.14H67.0526V20.5H65.9006ZM66.4766 12.916C66.2526 12.916 66.0646 12.844 65.9126 12.7C65.7686 12.556 65.6966 12.38 65.6966 12.172C65.6966 11.956 65.7686 11.776 65.9126 11.632C66.0646 11.488 66.2526 11.416 66.4766 11.416C66.7006 11.416 66.8846 11.488 67.0286 11.632C67.1806 11.768 67.2566 11.94 67.2566 12.148C67.2566 12.364 67.1846 12.548 67.0406 12.7C66.8966 12.844 66.7086 12.916 66.4766 12.916ZM71.4362 20.572C70.7962 20.572 70.3002 20.4 69.9482 20.056C69.5962 19.712 69.4202 19.22 69.4202 18.58V12.748H70.5722V18.532C70.5722 18.876 70.6562 19.14 70.8242 19.324C71.0002 19.508 71.2482 19.6 71.5682 19.6C71.9282 19.6 72.2282 19.5 72.4682 19.3L72.8282 20.128C72.6522 20.28 72.4402 20.392 72.1922 20.464C71.9522 20.536 71.7002 20.572 71.4362 20.572ZM68.3402 15.088V14.14H72.3962V15.088H68.3402ZM80.1676 20.572C79.5276 20.572 78.9596 20.432 78.4636 20.152C77.9676 19.872 77.5756 19.488 77.2876 19C76.9996 18.504 76.8556 17.944 76.8556 17.32C76.8556 16.688 76.9996 16.128 77.2876 15.64C77.5756 15.152 77.9676 14.772 78.4636 14.5C78.9596 14.22 79.5276 14.08 80.1676 14.08C80.7996 14.08 81.3636 14.22 81.8596 14.5C82.3636 14.772 82.7556 15.152 83.0356 15.64C83.3236 16.12 83.4676 16.68 83.4676 17.32C83.4676 17.952 83.3236 18.512 83.0356 19C82.7556 19.488 82.3636 19.872 81.8596 20.152C81.3636 20.432 80.7996 20.572 80.1676 20.572ZM80.1676 19.564C80.5756 19.564 80.9396 19.472 81.2596 19.288C81.5876 19.104 81.8436 18.844 82.0276 18.508C82.2116 18.164 82.3036 17.768 82.3036 17.32C82.3036 16.864 82.2116 16.472 82.0276 16.144C81.8436 15.808 81.5876 15.548 81.2596 15.364C80.9396 15.18 80.5756 15.088 80.1676 15.088C79.7596 15.088 79.3956 15.18 79.0756 15.364C78.7556 15.548 78.4996 15.808 78.3076 16.144C78.1156 16.472 78.0196 16.864 78.0196 17.32C78.0196 17.768 78.1156 18.164 78.3076 18.508C78.4996 18.844 78.7556 19.104 79.0756 19.288C79.3956 19.472 79.7596 19.564 80.1676 19.564ZM88.4568 14.08C88.9768 14.08 89.4328 14.18 89.8248 14.38C90.2248 14.58 90.5368 14.884 90.7608 15.292C90.9848 15.7 91.0968 16.216 91.0968 16.84V20.5H89.9448V16.972C89.9448 16.356 89.7928 15.892 89.4888 15.58C89.1928 15.268 88.7728 15.112 88.2288 15.112C87.8208 15.112 87.4648 15.192 87.1608 15.352C86.8568 15.512 86.6208 15.748 86.4528 16.06C86.2928 16.372 86.2128 16.76 86.2128 17.224V20.5H85.0608V14.14H86.1648V15.856L85.9848 15.4C86.1928 14.984 86.5128 14.66 86.9448 14.428C87.3768 14.196 87.8808 14.08 88.4568 14.08ZM97.6994 16.072H102.031V17.104H97.6994V16.072ZM97.8194 20.5H96.6194V12.1H102.547V13.144H97.8194V20.5ZM104.069 20.5V14.14H105.221V20.5H104.069ZM104.645 12.916C104.421 12.916 104.233 12.844 104.081 12.7C103.937 12.556 103.865 12.38 103.865 12.172C103.865 11.956 103.937 11.776 104.081 11.632C104.233 11.488 104.421 11.416 104.645 11.416C104.869 11.416 105.053 11.488 105.197 11.632C105.349 11.768 105.425 11.94 105.425 12.148C105.425 12.364 105.353 12.548 105.209 12.7C105.065 12.844 104.877 12.916 104.645 12.916ZM107.42 20.5V14.14H108.524V15.868L108.416 15.436C108.592 14.996 108.888 14.66 109.304 14.428C109.72 14.196 110.232 14.08 110.84 14.08V15.196C110.792 15.188 110.744 15.184 110.696 15.184C110.656 15.184 110.616 15.184 110.576 15.184C109.96 15.184 109.472 15.368 109.112 15.736C108.752 16.104 108.572 16.636 108.572 17.332V20.5H107.42ZM115.033 20.572C114.353 20.572 113.753 20.432 113.233 20.152C112.721 19.872 112.321 19.488 112.033 19C111.753 18.512 111.613 17.952 111.613 17.32C111.613 16.688 111.749 16.128 112.021 15.64C112.301 15.152 112.681 14.772 113.161 14.5C113.649 14.22 114.197 14.08 114.805 14.08C115.421 14.08 115.965 14.216 116.437 14.488C116.909 14.76 117.277 15.144 117.541 15.64C117.813 16.128 117.949 16.7 117.949 17.356C117.949 17.404 117.945 17.46 117.937 17.524C117.937 17.588 117.933 17.648 117.925 17.704H112.513V16.876H117.325L116.857 17.164C116.865 16.756 116.781 16.392 116.605 16.072C116.429 15.752 116.185 15.504 115.873 15.328C115.569 15.144 115.213 15.052 114.805 15.052C114.405 15.052 114.049 15.144 113.737 15.328C113.425 15.504 113.181 15.756 113.005 16.084C112.829 16.404 112.741 16.772 112.741 17.188V17.38C112.741 17.804 112.837 18.184 113.029 18.52C113.229 18.848 113.505 19.104 113.857 19.288C114.209 19.472 114.613 19.564 115.069 19.564C115.445 19.564 115.785 19.5 116.089 19.372C116.401 19.244 116.673 19.052 116.905 18.796L117.541 19.54C117.253 19.876 116.893 20.132 116.461 20.308C116.037 20.484 115.561 20.572 115.033 20.572ZM119.717 20.5V13.576C119.717 12.952 119.897 12.456 120.257 12.088C120.625 11.712 121.145 11.524 121.817 11.524C122.065 11.524 122.301 11.556 122.525 11.62C122.757 11.676 122.953 11.768 123.113 11.896L122.765 12.772C122.645 12.676 122.509 12.604 122.357 12.556C122.205 12.5 122.045 12.472 121.877 12.472C121.541 12.472 121.285 12.568 121.109 12.76C120.933 12.944 120.845 13.22 120.845 13.588V14.44L120.869 14.968V20.5H119.717ZM118.637 15.088V14.14H122.693V15.088H118.637ZM126.41 20.572C125.77 20.572 125.202 20.432 124.706 20.152C124.21 19.872 123.818 19.488 123.53 19C123.242 18.504 123.098 17.944 123.098 17.32C123.098 16.688 123.242 16.128 123.53 15.64C123.818 15.152 124.21 14.772 124.706 14.5C125.202 14.22 125.77 14.08 126.41 14.08C127.042 14.08 127.606 14.22 128.102 14.5C128.606 14.772 128.998 15.152 129.278 15.64C129.566 16.12 129.71 16.68 129.71 17.32C129.71 17.952 129.566 18.512 129.278 19C128.998 19.488 128.606 19.872 128.102 20.152C127.606 20.432 127.042 20.572 126.41 20.572ZM126.41 19.564C126.818 19.564 127.182 19.472 127.502 19.288C127.83 19.104 128.086 18.844 128.27 18.508C128.454 18.164 128.546 17.768 128.546 17.32C128.546 16.864 128.454 16.472 128.27 16.144C128.086 15.808 127.83 15.548 127.502 15.364C127.182 15.18 126.818 15.088 126.41 15.088C126.002 15.088 125.638 15.18 125.318 15.364C124.998 15.548 124.742 15.808 124.55 16.144C124.358 16.472 124.262 16.864 124.262 17.32C124.262 17.768 124.358 18.164 124.55 18.508C124.742 18.844 124.998 19.104 125.318 19.288C125.638 19.472 126.002 19.564 126.41 19.564ZM130.168 20.5L132.904 16.948L132.892 17.536L130.288 14.14H131.572L133.564 16.756H133.072L135.064 14.14H136.324L133.684 17.56L133.696 16.948L136.456 20.5H135.148L133.048 17.716L133.516 17.788L131.452 20.5H130.168Z" fill="#24292F"/>
<defs>
<linearGradient id="paint0_linear_871_2" x1="29.646" y1="10.9805" x2="17.5457" y2="21.91" gradientUnits="userSpaceOnUse">
<stop offset="0.048" stop-color="#FFF44F"/>
<stop offset="0.111" stop-color="#FFE847"/>
<stop offset="0.225" stop-color="#FFC830"/>
<stop offset="0.368" stop-color="#FF980E"/>
<stop offset="0.401" stop-color="#FF8B16"/>
<stop offset="0.462" stop-color="#FF672A"/>
<stop offset="0.534" stop-color="#FF3647"/>
<stop offset="0.705" stop-color="#E31587"/>
</linearGradient>
<radialGradient id="paint1_radial_871_2" cx="0" cy="0" r="1" gradientUnits="userSpaceOnUse" gradientTransform="translate(29.3338 10.3414) scale(14.7387)">
<stop offset="0.129" stop-color="#FFBD4F"/>
<stop offset="0.186" stop-color="#FFAC31"/>
<stop offset="0.247" stop-color="#FF9D17"/>
<stop offset="0.283" stop-color="#FF980E"/>
<stop offset="0.403" stop-color="#FF563B"/>
<stop offset="0.467" stop-color="#FF3750"/>
<stop offset="0.71" stop-color="#F5156C"/>
<stop offset="0.782" stop-color="#EB0878"/>
<stop offset="0.86" stop-color="#E50080"/>
</radialGradient>
<radialGradient id="paint2_radial_871_2" cx="0" cy="0" r="1" gradientUnits="userSpaceOnUse" gradientTransform="translate(23.9481 16.367) scale(14.7387)">
<stop offset="0.3" stop-color="#960E18"/>
<stop offset="0.351" stop-color="#B11927" stop-opacity="0.74"/>
<stop offset="0.435" stop-color="#DB293D" stop-opacity="0.343"/>
<stop offset="0.497" stop-color="#F5334B" stop-opacity="0.094"/>
<stop offset="0.53" stop-color="#FF3750" stop-opacity="0"/>
</radialGradient>
<radialGradient id="paint3_radial_871_2" cx="0" cy="0" r="1" gradientUnits="userSpaceOnUse" gradientTransform="translate(25.7251 6.99656) scale(10.6776 10.6776)">
<stop offset="0.132" stop-color="#FFF44F"/>
<stop offset="0.252" stop-color="#FFDC3E"/>
<stop offset="0.506" stop-color="#FF9D12"/>
<stop offset="0.526" stop-color="#FF980E"/>
</radialGradient>
<radialGradient id="paint4_radial_871_2" cx="0" cy="0" r="1" gradientUnits="userSpaceOnUse" gradientTransform="translate(22.3179 20.2168) scale(7.01777)">
<stop offset="0.353" stop-color="#3A8EE6"/>
<stop offset="0.472" stop-color="#5C79F0"/>
<stop offset="0.669" stop-color="#9059FF"/>
<stop offset="1" stop-color="#C139E6"/>
</radialGradient>
<radialGradient id="paint5_radial_871_2" cx="0" cy="0" r="1" gradientUnits="userSpaceOnUse" gradientTransform="translate(24.7536 15.159) rotate(-13.5916) scale(3.72077 4.3561)">
<stop offset="0.206" stop-color="#9059FF" stop-opacity="0"/>
<stop offset="0.278" stop-color="#8C4FF3" stop-opacity="0.064"/>
<stop offset="0.747" stop-color="#7716A8" stop-opacity="0.45"/>
<stop offset="0.975" stop-color="#6E008B" stop-opacity="0.6"/>
</radialGradient>
<radialGradient id="paint6_radial_871_2" cx="0" cy="0" r="1" gradientUnits="userSpaceOnUse" gradientTransform="translate(23.762 9.73835) scale(5.04857 5.04857)">
<stop stop-color="#FFE226"/>
<stop offset="0.121" stop-color="#FFDB27"/>
<stop offset="0.295" stop-color="#FFC82A"/>
<stop offset="0.502" stop-color="#FFA930"/>
<stop offset="0.732" stop-color="#FF7E37"/>
<stop offset="0.792" stop-color="#FF7139"/>
</radialGradient>
<radialGradient id="paint7_radial_871_2" cx="0" cy="0" r="1" gradientUnits="userSpaceOnUse" gradientTransform="translate(27.7304 6.53622) scale(21.54 21.54)">
<stop offset="0.113" stop-color="#FFF44F"/>
<stop offset="0.456" stop-color="#FF980E"/>
<stop offset="0.622" stop-color="#FF5634"/>
<stop offset="0.716" stop-color="#FF3647"/>
<stop offset="0.904" stop-color="#E31587"/>
</radialGradient>
<radialGradient id="paint8_radial_871_2" cx="0" cy="0" r="1" gradientUnits="userSpaceOnUse" gradientTransform="translate(25.9148 7.73387) rotate(83.976) scale(15.7872 10.361)">
<stop stop-color="#FFF44F"/>
<stop offset="0.06" stop-color="#FFE847"/>
<stop offset="0.168" stop-color="#FFC830"/>
<stop offset="0.304" stop-color="#FF980E"/>
<stop offset="0.356" stop-color="#FF8B16"/>
<stop offset="0.455" stop-color="#FF672A"/>
<stop offset="0.57" stop-color="#FF3647"/>
<stop offset="0.737" stop-color="#E31587"/>
</radialGradient>
<radialGradient id="paint9_radial_871_2" cx="0" cy="0" r="1" gradientUnits="userSpaceOnUse" gradientTransform="translate(23.6431 11.6083) scale(13.4478)">
<stop offset="0.137" stop-color="#FFF44F"/>
<stop offset="0.48" stop-color="#FF980E"/>
<stop offset="0.592" stop-color="#FF5634"/>
<stop offset="0.655" stop-color="#FF3647"/>
<stop offset="0.904" stop-color="#E31587"/>
</radialGradient>
<radialGradient id="paint10_radial_871_2" cx="0" cy="0" r="1" gradientUnits="userSpaceOnUse" gradientTransform="translate(27.1929 12.3954) scale(14.7185)">
<stop offset="0.094" stop-color="#FFF44F"/>
<stop offset="0.231" stop-color="#FFE141"/>
<stop offset="0.509" stop-color="#FFAF1E"/>
<stop offset="0.626" stop-color="#FF980E"/>
</radialGradient>
<linearGradient id="paint11_linear_871_2" x1="29.5012" y1="10.9222" x2="19.1927" y2="20.5667" gradientUnits="userSpaceOnUse">
<stop offset="0.167" stop-color="#FFF44F" stop-opacity="0.8"/>
<stop offset="0.266" stop-color="#FFF44F" stop-opacity="0.634"/>
<stop offset="0.489" stop-color="#FFF44F" stop-opacity="0.217"/>
<stop offset="0.6" stop-color="#FFF44F" stop-opacity="0"/>
</linearGradient>
<clipPath id="clip0_871_2">
<rect width="16" height="16" fill="white" transform="translate(16 8)"/>
</clipPath>
</defs>
</svg>
