<svg width="20" height="20" viewBox="0 0 20 20" fill="none" xmlns="http://www.w3.org/2000/svg">
<path d="M3.13338 9.16289C2.9472 9.36683 2.96159 9.68308 3.16553 9.86926C3.36947 10.0554 3.68573 10.041 3.87191 9.83711L9.50264 3.66925L9.50264 17.5C9.50264 17.7761 9.7265 18 10.0026 18C10.2788 18 10.5026 17.7761 10.5026 17.5L10.5026 3.67214L16.1307 9.83711C16.3169 10.041 16.6332 10.0554 16.8371 9.86926C17.041 9.68308 17.0554 9.36683 16.8693 9.16289L10.5552 2.24654C10.4275 2.10659 10.2599 2.02676 10.0868 2.00705C10.0594 2.00241 10.0313 2 10.0026 2C9.97577 2 9.94939 2.00212 9.92367 2.0062C9.74776 2.02437 9.5771 2.10449 9.44742 2.24654L3.13338 9.16289Z" fill="#242424"/>
</svg>
