<svg width="150" height="150" viewBox="0 0 150 150" fill="none" xmlns="http://www.w3.org/2000/svg">
<path d="M0 56.25C0 25.184 25.184 0 56.25 0H150V93.75C150 124.816 124.816 150 93.75 150H0V56.25Z" fill="url(#paint0_linear_864_2)"/>
<g filter="url(#filter0_d_864_2)">
<path d="M91.0034 86.843H107.428C107.098 92.2263 105.615 97.0054 102.979 101.18C100.378 105.355 96.7346 108.614 92.0471 110.958C87.3962 113.302 81.7932 114.474 75.238 114.474C70.1111 114.474 65.5151 113.595 61.4502 111.837C57.3853 110.042 53.9062 107.479 51.0132 104.146C48.1567 100.814 45.9778 96.7856 44.4763 92.0615C42.9749 87.3374 42.2241 82.0457 42.2241 76.1863V70.6382C42.2241 64.7788 42.9932 59.4871 44.5312 54.7629C46.106 50.0022 48.3398 45.9556 51.2329 42.623C54.1626 39.2905 57.6599 36.7271 61.7249 34.9326C65.7898 33.1382 70.3308 32.241 75.3479 32.241C82.0129 32.241 87.6343 33.4495 92.2119 35.8665C96.8262 38.2834 100.397 41.616 102.924 45.864C105.487 50.1121 107.025 54.946 107.538 60.366H91.0583C90.8752 57.1433 90.2344 54.415 89.1357 52.1812C88.0371 49.9106 86.3708 48.2078 84.137 47.0725C81.9397 45.9006 79.01 45.3147 75.3479 45.3147C72.6013 45.3147 70.2026 45.8274 68.1519 46.8528C66.1011 47.8782 64.3799 49.4346 62.9883 51.522C61.5967 53.6094 60.553 56.2461 59.8572 59.4321C59.198 62.5815 58.8684 66.2803 58.8684 70.5283V76.1863C58.8684 80.3245 59.1797 83.9683 59.8022 87.1177C60.4248 90.2305 61.377 92.8672 62.6587 95.0278C63.9771 97.1519 65.6616 98.7632 67.7124 99.8618C69.7998 100.924 72.3083 101.455 75.238 101.455C78.6804 101.455 81.5186 100.906 83.7524 99.8069C85.9863 98.7083 87.6892 97.0786 88.8611 94.918C90.0696 92.7573 90.7837 90.0657 91.0034 86.843Z" fill="white"/>
</g>
<defs>
<filter id="filter0_d_864_2" x="42.2241" y="32.241" width="65.3137" height="85.9827" filterUnits="userSpaceOnUse" color-interpolation-filters="sRGB">
<feFlood flood-opacity="0" result="BackgroundImageFix"/>
<feColorMatrix in="SourceAlpha" type="matrix" values="0 0 0 0 0 0 0 0 0 0 0 0 0 0 0 0 0 0 127 0" result="hardAlpha"/>
<feOffset dy="3.75"/>
<feComposite in2="hardAlpha" operator="out"/>
<feColorMatrix type="matrix" values="0 0 0 0 0 0 0 0 0 0 0 0 0 0 0 0 0 0 0.25 0"/>
<feBlend mode="normal" in2="BackgroundImageFix" result="effect1_dropShadow_864_2"/>
<feBlend mode="normal" in="SourceGraphic" in2="effect1_dropShadow_864_2" result="shape"/>
</filter>
<linearGradient id="paint0_linear_864_2" x1="18.75" y1="18.75" x2="131.25" y2="131.25" gradientUnits="userSpaceOnUse">
<stop stop-color="#1890DE"/>
<stop offset="1" stop-color="#075DCE"/>
</linearGradient>
</defs>
</svg>
